# xmcd
# Track frame offsets:
# 150
# 14677
# 26917
# 43611
# 57638
# 73652
# 88404
# 102758
# 118978
# 134839
# 152134
# 165926
# 182610
# 197100
# 211846
# 226510
# 242246
# 256205
# 272309
# 290145
#
# Disc length: 4055 seconds
# Revision: 0
# Processed by: cddbd v1.5.2PL0 Copyright (c) Steve Scherf et al.
# Submitted via: VisiTrax 2.11.2.271 - For more info visit www.synapsa.com
#
DISCID=2a0fd514
DTITLE=Lasse Stefanz - Vår Bästa Country [CD1)
DYEAR=2012
DGENRE=Dansband
TTITLE0=När Contryn Kom Till Skåne
TTITLE1=Saknar Dig (It's A Little Too Late)
TTITLE2=Tänk På Mig Ibland (Please Remember Me)
TTITLE3=More Than I Can Say
TTITLE4=Öppna Dina Ögon (All You Ever Do Is Bring Me Down)
TTITLE5=Du Vinner Igen (We All Get Lucky Sometimes)
TTITLE6=Är Det Kärlek Du Behöver (It Ain't All Over Here)
TTITLE7=Dagen Går Mot Kväll
TTITLE8=Båten Till Köpenhamn (If I Can Find A Clean Shirt)
TTITLE9=En Man Som Han (A Guy Like That)
TTITLE10=En Ring På Ditt Finger (Wrapped Around)
TTITLE11=Ge Mig En Ros (Buy Me A Rose)
TTITLE12=Månen Över Uppland (I Flew Over Our House Last Night)
TTITLE13=Låt En Morgon Vakna
TTITLE14=Det Kanske Är Ditt Hjärtas Fel (Blame It On Your Heart)
TTITLE15=Emelie
TTITLE16=Vagabond
TTITLE17=När En Himlen Är Så Blå
TTITLE18=Hon Tror Hon Vet (Sometimes She Forgets)
TTITLE19=Österlenvisan
EXTD=
EXTT0=
EXTT1=
EXTT2=
EXTT3=
EXTT4=
EXTT5=
EXTT6=
EXTT7=
EXTT8=
EXTT9=
EXTT10=
EXTT11=
EXTT12=
EXTT13=
EXTT14=
EXTT15=
EXTT16=
EXTT17=
EXTT18=
EXTT19=
PLAYORDER=
